<?xml version="1.0" encoding="UTF-8"?>
<svg id="Calque_2" data-name="Calque 2" xmlns="http://www.w3.org/2000/svg" viewBox="0 0 393 528.58">
  <defs>
    <style>
      .cls-1 {
        fill: #c69805;
      }

      .cls-1, .cls-2, .cls-3 {
        stroke-width: 0px;
      }

      .cls-4 {
        fill: none;
        stroke: #1d1d1b;
        stroke-linecap: round;
        stroke-linejoin: round;
        stroke-width: 22px;
      }

      .cls-2 {
        fill: #ffcd07;
      }

      .cls-3 {
        fill: #fff;
      }
    </style>
  </defs>
  <g id="Calque_2-2" data-name="Calque 2">
    <g>
      <path class="cls-2" d="M358.72,514.2l-153.09-129.76c-5.27-4.47-13-4.47-18.28,0l-153.09,129.76c-9.18,7.78-23.27,1.26-23.27-10.78V25.13c0-7.81,6.33-14.13,14.13-14.13h342.73c7.81,0,14.13,6.33,14.13,14.13v478.29c0,12.04-14.09,18.56-23.27,10.78Z"/>
      <polygon class="cls-1" points="24.94 510.51 196.5 328.23 370.72 506.06 205.39 378.95 34.27 514.2 24.94 510.51"/>
      <path class="cls-4" d="M358.72,514.2l-153.09-129.76c-5.27-4.47-13-4.47-18.28,0l-153.09,129.76c-9.18,7.78-23.27,1.26-23.27-10.78V25.13c0-7.81,6.33-14.13,14.13-14.13h342.73c7.81,0,14.13,6.33,14.13,14.13v478.29c0,12.04-14.09,18.56-23.27,10.78Z"/>
      <path class="cls-3" d="M356.06,39.46v102.73c0,6.13-8.94,6.85-9.92.8l-13.22-81.28c-.34-2.12-2.01-3.78-4.13-4.12l-81.38-13.2c-6.06-.98-5.34-9.91.8-9.91h102.85c2.76,0,4.99,2.23,4.99,4.99Z"/>
    </g>
  </g>
</svg>