<?xml version="1.0" encoding="UTF-8"?>
<svg id="Calque_2" data-name="Calque 2" xmlns="http://www.w3.org/2000/svg" viewBox="0 0 311.72 534.75">
  <defs>
    <style>
      .cls-1 {
        fill: #ffcd07;
      }

      .cls-1, .cls-2 {
        stroke: #1d1d1b;
        stroke-linecap: round;
        stroke-linejoin: round;
        stroke-width: 22px;
      }

      .cls-2 {
        fill: #eef4fb;
      }
    </style>
  </defs>
  <g id="Calque_1-2" data-name="Calque 1">
    <g>
      <path class="cls-2" d="M286.51,521.45l-124.88-117.28c-3.25-3.05-8.3-3.05-11.55,0l-124.88,117.28c-5.38,5.06-14.21,1.24-14.21-6.15V19.43c0-4.66,3.78-8.43,8.43-8.43h272.85c4.66,0,8.43,3.78,8.43,8.43v495.87c0,7.39-8.82,11.2-14.21,6.15Z"/>
      <path class="cls-1" d="M161.53,101.25l19.08,41.18,45.06,5.42c5.28.64,7.4,7.16,3.5,10.78l-33.26,30.87,8.77,44.52c1.03,5.22-4.52,9.25-9.17,6.66l-39.64-22.1-39.64,22.1c-4.65,2.59-10.2-1.44-9.17-6.66l8.77-44.52-33.26-30.87c-3.9-3.62-1.78-10.14,3.5-10.78l45.06-5.42,19.08-41.18c2.24-4.83,9.1-4.83,11.33,0Z"/>
    </g>
  </g>
</svg>