<?xml version="1.0" encoding="UTF-8"?>
<svg id="Calque_2" data-name="Calque 2" xmlns="http://www.w3.org/2000/svg" viewBox="0 0 524.18 501.63">
  <defs>
    <style>
      .cls-1, .cls-2 {
        stroke: #1d1d1b;
        stroke-linecap: round;
        stroke-linejoin: round;
        stroke-width: 22px;
      }

      .cls-1, .cls-3 {
        fill: #ffcd07;
      }

      .cls-2 {
        fill: #eef4fb;
      }

      .cls-3, .cls-4 {
        stroke-width: 0px;
      }

      .cls-4 {
        fill: #1d1d1b;
      }
    </style>
  </defs>
  <g id="Calque_1-2" data-name="Calque 1">
    <g>
      <path class="cls-2" d="M490.63,222.73v56.15c0,10.72-8.7,19.42-19.42,19.42h-21.92c-5.09,21.22-13.49,41.15-24.61,59.23l15.55,15.55c7.59,7.59,7.59,19.88,0,27.46l-39.7,39.7c-7.58,7.58-19.86,7.58-27.44,0l-15.52-15.52c-18.08,11.15-38.03,19.58-59.27,24.69v21.81c0,10.72-8.7,19.42-19.42,19.42h-56.14c-10.72,0-19.42-8.7-19.42-19.42v-21.53c-21.39-5.01-41.5-13.37-59.72-24.51l-15.07,15.07c-7.58,7.58-19.86,7.58-27.44,0l-39.71-39.7c-7.58-7.58-7.58-19.86,0-27.46l14.82-14.82c-11.36-18.26-19.9-38.45-25.06-59.95h-20.74c-10.71,0-19.41-8.7-19.41-19.42v-56.15c0-10.71,8.7-19.41,19.41-19.41h20.52c5.08-21.62,13.6-41.93,24.94-60.3l-14.49-14.49c-7.58-7.58-7.58-19.86,0-27.46l39.71-39.7c7.58-7.58,19.86-7.58,27.44,0l14.51,14.51c18.37-11.3,38.66-19.8,60.27-24.85v-20.64c0-10.71,8.7-19.41,19.42-19.41h56.14c10.72,0,19.42,8.7,19.42,19.41v20.92c21.45,5.16,41.58,13.69,59.8,25.02h.01l14.97-14.97c7.58-7.58,19.86-7.58,27.44,0l39.7,39.7c7.59,7.59,7.59,19.88,0,27.46l-15.21,15.21c11.11,18.18,19.47,38.23,24.49,59.58h21.7c10.72,0,19.42,8.7,19.42,19.41Z"/>
      <circle class="cls-1" cx="250.81" cy="250.36" r="147.08"/>
      <path class="cls-2" d="M332.05,227.22c0,33.97-20.86,63.07-50.48,75.19v91.87c-9.93,2.07-20.21,3.16-30.76,3.16s-20.83-1.09-30.76-3.16v-91.87c-29.61-12.12-50.46-41.22-50.46-75.19s21.56-64.05,51.96-75.8v69.67c0,16.17,13.1,29.27,29.27,29.27s29.27-13.1,29.27-29.27v-69.67c30.4,11.75,51.97,41.26,51.97,75.8Z"/>
      <circle class="cls-2" cx="415.23" cy="372.96" r="97.96"/>
      <g>
        <path class="cls-3" d="M412.44,419.22c-4.67,0-9.17-1.7-12.67-4.8l-29.05-25.68c-7.91-6.99-8.66-19.11-1.67-27.01,3.63-4.11,8.86-6.46,14.34-6.46,4.67,0,9.17,1.7,12.67,4.8l14.74,13.03,30.14-33.97c3.63-4.09,8.85-6.44,14.32-6.44,4.68,0,9.19,1.71,12.7,4.82,3.82,3.39,6.1,8.07,6.4,13.17.31,5.1-1.4,10.02-4.79,13.84l-42.81,48.26c-3.63,4.09-8.85,6.44-14.32,6.44Z"/>
        <path class="cls-4" d="M455.26,343.69c1.92,0,3.85.68,5.4,2.05h0c3.36,2.98,3.67,8.13.69,11.49l-42.81,48.26c-1.61,1.81-3.84,2.74-6.09,2.74-1.92,0-3.84-.67-5.39-2.04l-29.05-25.68c-3.37-2.98-3.69-8.12-.71-11.49h0c1.61-1.82,3.85-2.75,6.1-2.75,1.92,0,3.84.67,5.39,2.04l16.88,14.92c1.55,1.37,3.47,2.04,5.39,2.04,2.25,0,4.48-.92,6.09-2.74l32.03-36.1c1.61-1.81,3.84-2.74,6.09-2.74M455.26,321.69h0c-8.61,0-16.83,3.7-22.55,10.14l-22.85,25.75-6.51-5.76c-5.51-4.87-12.6-7.56-19.96-7.56-8.64,0-16.87,3.71-22.59,10.18-11,12.45-9.83,31.54,2.62,42.54l29.05,25.68c5.51,4.87,12.6,7.56,19.96,7.56,8.61,0,16.83-3.69,22.55-10.14l42.81-48.26c5.34-6.02,8.02-13.76,7.54-21.8-.48-8.04-4.06-15.4-10.08-20.75-5.52-4.9-12.62-7.59-20-7.59h0Z"/>
      </g>
    </g>
  </g>
</svg>