<?xml version="1.0" encoding="UTF-8"?>
<svg id="Calque_2" data-name="Calque 2" xmlns="http://www.w3.org/2000/svg" viewBox="0 0 710.66 491.75">
  <defs>
    <style>
      .cls-1 {
        fill: #ffcd07;
      }

      .cls-1, .cls-2 {
        stroke-width: 22px;
      }

      .cls-1, .cls-2, .cls-3 {
        stroke: #1d1d1b;
        stroke-linecap: round;
        stroke-linejoin: round;
      }

      .cls-2 {
        fill: #eef4fb;
      }

      .cls-3 {
        fill: #1d1d1b;
        stroke-width: 12px;
      }
    </style>
  </defs>
  <g id="Calque_1-2" data-name="Calque 1">
    <g>
      <polygon class="cls-3" points="356.08 99.06 354.58 99.06 6 99.06 6 460.23 294.43 460.23 294.43 485.75 355.33 485.75 416.23 485.75 416.23 460.23 704.66 460.23 704.66 99.06 356.08 99.06"/>
      <rect class="cls-1" x="22.59" y="107.99" width="265.45" height="335.65"/>
      <path class="cls-2" d="M304.29,136.24v300.87c-40.71-11.31-87.57-17.72-137.47-17.72-40.88,0-79.74,4.35-114.86,12.12V51.44c8.64-.6,17.45-.87,26.31-.87,96.97,0,181.5,34.52,226.02,85.67Z"/>
      <path class="cls-2" d="M357.11,96.67v354.63h-25.71c-47.51-35.22-117.36-57.46-195.2-57.46-10.65,0-21.15.43-31.42,1.25V11.87c8.64-.6,17.45-.87,26.31-.87,96.97,0,181.5,34.52,226.02,85.67Z"/>
      <rect class="cls-1" x="422.61" y="107.99" width="265.45" height="335.65" transform="translate(1110.68 551.63) rotate(180)"/>
      <path class="cls-2" d="M406.37,136.24v300.87c40.71-11.31,87.57-17.72,137.47-17.72,40.88,0,79.74,4.35,114.86,12.12V51.44c-8.64-.6-17.45-.87-26.31-.87-96.97,0-181.5,34.52-226.02,85.67Z"/>
      <path class="cls-2" d="M357.11,96.67v354.63h25.71c47.51-35.22,117.36-57.46,195.2-57.46,10.65,0,21.15.43,31.42,1.25V11.87c-8.64-.6-17.45-.87-26.31-.87-96.97,0-181.5,34.52-226.02,85.67Z"/>
    </g>
  </g>
</svg>