<?xml version="1.0" encoding="UTF-8"?>
<svg id="Calque_2" data-name="Calque 2" xmlns="http://www.w3.org/2000/svg" viewBox="0 0 530.01 496.29">
  <defs>
    <style>
      .cls-1 {
        fill: #ffcd07;
      }

      .cls-1, .cls-2 {
        stroke: #1d1d1b;
        stroke-linecap: round;
        stroke-linejoin: round;
        stroke-width: 22px;
      }

      .cls-2 {
        fill: #eef4fb;
      }
    </style>
  </defs>
  <g id="Calque_1-2" data-name="Calque 1">
    <g>
      <path class="cls-2" d="M137.08,188.68c-50.41.93-91.46-40.12-90.52-90.52.88-47.5,39.64-86.27,87.15-87.15,50.41-.94,91.46,40.12,90.52,90.52-.88,47.5-39.64,86.27-87.15,87.15Z"/>
      <path class="cls-2" d="M398.71,281.81v-76.21c0-9.33-7.56-16.9-16.9-16.9H27.9c-9.33,0-16.9,7.56-16.9,16.9v262.8c0,9.33,7.56,16.9,16.9,16.9h353.92c9.33,0,16.9-7.56,16.9-16.9v-73.7c0-13.01,14.08-21.13,25.34-14.63l69.62,40.19c11.26,6.5,25.34-1.63,25.34-14.63v-134.74c0-13.01-14.08-21.13-25.34-14.63l-69.62,40.19c-11.26,6.5-25.34-1.63-25.34-14.63Z"/>
      <circle class="cls-2" cx="282.56" cy="129.72" r="59.31"/>
      <path class="cls-1" d="M265.29,347.36l-92.66,53.5c-7.02,4.05-15.78-1.01-15.78-9.11v-107c0-8.1,8.77-13.16,15.78-9.11l92.66,53.5c7.02,4.05,7.02,14.18,0,18.23Z"/>
    </g>
  </g>
</svg>